<?xml version="1.0" encoding="UTF-8"?>
<svg xmlns="http://www.w3.org/2000/svg" xmlns:xlink="http://www.w3.org/1999/xlink" width="108px" height="70px" viewBox="0 0 107 70" version="1.1">
<g id="surface1">
<path style=" stroke:none;fill-rule:evenodd;fill:rgb(0%,0%,0%);fill-opacity:1;" d="M 20.332031 63.246094 C 23.851562 59.648438 28.011719 55.996094 31.105469 51.265625 L 75.886719 51.265625 C 78.988281 55.984375 83.148438 59.648438 86.660156 63.246094 C 113.609375 90.851562 111.796875 26.179688 92.753906 6.753906 L 91.292969 6.753906 C 88.898438 2.726562 84.21875 0 78.847656 0 C 73.476562 0 68.808594 2.726562 66.414062 6.753906 L 40.585938 6.753906 C 38.191406 2.726562 33.515625 0 28.144531 0 C 22.769531 0 18.101562 2.726562 15.699219 6.753906 L 14.238281 6.753906 C -4.804688 26.179688 -6.617188 90.84375 20.332031 63.246094 Z M 25.992188 11.246094 L 35.667969 11.246094 L 35.667969 19 L 43.371094 19 L 43.371094 28.730469 L 35.667969 28.730469 L 35.667969 36.480469 L 25.992188 36.480469 L 25.992188 28.730469 L 18.285156 28.730469 L 18.285156 19 L 25.992188 19 Z M 72.414062 32.320312 C 74.753906 32.320312 76.652344 34.230469 76.652344 36.585938 C 76.652344 38.941406 74.753906 40.859375 72.414062 40.859375 C 70.070312 40.859375 68.171875 38.949219 68.171875 36.585938 C 68.171875 34.230469 70.070312 32.320312 72.414062 32.320312 Z M 74.730469 13.324219 C 78.125 13.324219 80.875 16.089844 80.875 19.496094 C 80.875 22.914062 78.125 25.671875 74.730469 25.671875 C 71.332031 25.671875 68.589844 22.90625 68.589844 19.496094 C 68.589844 16.089844 71.332031 13.324219 74.730469 13.324219 Z M 90.59375 22.871094 C 92.9375 22.871094 94.835938 24.777344 94.835938 27.136719 C 94.835938 29.492188 92.9375 31.398438 90.59375 31.398438 C 88.253906 31.398438 86.34375 29.492188 86.34375 27.136719 C 86.34375 24.777344 88.253906 22.871094 90.59375 22.871094 Z M 90.59375 22.871094 "/>
</g>
</svg>
