<?xml version="1.0" encoding="UTF-8"?>
<svg xmlns="http://www.w3.org/2000/svg" xmlns:xlink="http://www.w3.org/1999/xlink" width="90px" height="70px" viewBox="0 0 76 70" version="1.1">
<g id="surface1">
<path style=" stroke:none;fill-rule:nonzero;fill:rgb(0%,0%,0%);fill-opacity:1;" d="M 2.511719 5.15625 C 1.113281 5.125 -0.00390625 3.96875 0 2.550781 C 0.0234375 1.160156 1.132812 0.0351562 2.511719 0.0117188 L 6.222656 0.0117188 C 8.378906 -0.0234375 10.503906 0.539062 12.371094 1.640625 C 15.734375 3.796875 16.335938 6.882812 17.195312 10.359375 L 73.476562 10.359375 C 74.863281 10.363281 75.984375 11.5 75.988281 12.898438 C 75.976562 13.164062 75.933594 13.429688 75.859375 13.683594 L 69.308594 40.433594 C 69.050781 41.601562 68.015625 42.421875 66.835938 42.390625 L 25.671875 42.390625 C 26.578125 45.777344 27.480469 47.597656 28.699219 48.441406 C 30.183594 49.4375 32.78125 49.484375 37.066406 49.4375 L 66.214844 49.4375 C 67.601562 49.4375 68.726562 50.574219 68.726562 51.976562 C 68.726562 53.378906 67.601562 54.515625 66.214844 54.515625 L 37.109375 54.515625 C 31.773438 54.578125 28.488281 54.445312 25.851562 52.695312 C 23.21875 50.945312 21.734375 47.746094 20.316406 42.058594 L 11.714844 9.058594 C 11.714844 8.996094 11.714844 8.996094 11.644531 8.925781 C 11.417969 7.730469 10.722656 6.675781 9.714844 6 C 8.640625 5.390625 7.417969 5.097656 6.183594 5.15625 Z M 52.1875 20.796875 C 52.359375 19.957031 53.089844 19.355469 53.9375 19.355469 C 54.785156 19.355469 55.515625 19.957031 55.6875 20.796875 L 55.6875 30.625 C 55.515625 31.464844 54.785156 32.066406 53.9375 32.066406 C 53.089844 32.066406 52.359375 31.464844 52.1875 30.625 Z M 41.703125 20.796875 C 41.871094 19.949219 42.605469 19.339844 43.457031 19.339844 C 44.3125 19.339844 45.046875 19.949219 45.210938 20.796875 L 45.210938 30.625 C 45.046875 31.46875 44.3125 32.082031 43.457031 32.082031 C 42.605469 32.082031 41.871094 31.46875 41.703125 30.625 Z M 31.226562 20.796875 C 31.398438 19.957031 32.128906 19.355469 32.976562 19.355469 C 33.824219 19.355469 34.554688 19.957031 34.726562 20.796875 L 34.726562 30.625 C 34.554688 31.464844 33.824219 32.066406 32.976562 32.066406 C 32.128906 32.066406 31.398438 31.464844 31.226562 30.625 Z M 57.03125 15.429688 L 18.597656 15.429688 L 24.324219 37.238281 L 64.941406 37.238281 L 70.285156 15.429688 Z M 58.6875 57.476562 C 62.105469 57.476562 64.875 60.277344 64.875 63.730469 C 64.875 67.1875 62.105469 69.988281 58.6875 69.988281 C 55.273438 69.988281 52.503906 67.1875 52.503906 63.730469 C 52.503906 60.277344 55.273438 57.476562 58.6875 57.476562 Z M 31.597656 57.476562 C 35.015625 57.476562 37.785156 60.277344 37.785156 63.730469 C 37.785156 67.1875 35.015625 69.988281 31.597656 69.988281 C 28.183594 69.988281 25.414062 67.1875 25.414062 63.730469 C 25.414062 60.277344 28.183594 57.476562 31.597656 57.476562 Z M 31.597656 57.476562 "/>
</g>
</svg>
